<?xml version="1.0" encoding="UTF-8" standalone="no"?>
<svg
   xmlns:dc="http://purl.org/dc/elements/1.1/"
   xmlns:cc="http://creativecommons.org/ns#"
   xmlns:rdf="http://www.w3.org/1999/02/22-rdf-syntax-ns#"
   xmlns:svg="http://www.w3.org/2000/svg"
   xmlns="http://www.w3.org/2000/svg"
   xmlns:sodipodi="http://sodipodi.sourceforge.net/DTD/sodipodi-0.dtd"
   xmlns:inkscape="http://www.inkscape.org/namespaces/inkscape"
   width="278.36pt"
   height="70.75pt"
   viewBox="0 0 278.36 70.75"
   version="1.1"
   id="svg2"
   inkscape:version="0.91 r13725"
   sodipodi:docname="jQuery-OS-Logo.svg">
  <metadata
     id="metadata79">
    <rdf:RDF>
      <cc:Work
         rdf:about="">
        <dc:format>image/svg+xml</dc:format>
        <dc:type
           rdf:resource="http://purl.org/dc/dcmitype/StillImage" />
        <dc:title></dc:title>
      </cc:Work>
    </rdf:RDF>
  </metadata>
  <sodipodi:namedview
     pagecolor="#ffffff"
     bordercolor="#666666"
     borderopacity="1"
     objecttolerance="10"
     gridtolerance="10"
     guidetolerance="10"
     inkscape:pageopacity="0"
     inkscape:pageshadow="2"
     inkscape:window-width="1366"
     inkscape:window-height="682"
     id="namedview77"
     showgrid="false"
     inkscape:zoom="1.050338"
     inkscape:cx="190.24398"
     inkscape:cy="33.125258"
     inkscape:window-x="0"
     inkscape:window-y="24"
     inkscape:window-maximized="1"
     inkscape:current-layer="surface770" />
  <defs
     id="defs4">
    <clipPath
       id="clip1">
      <path
         d="M 176 64 L 181 64 L 181 70.75 L 176 70.75 Z M 176 64 "
         id="path7" />
    </clipPath>
    <clipPath
       id="clip2">
      <path
         d="M 236 4 L 278.359375 4 L 278.359375 49 L 236 49 Z M 236 4 "
         id="path10" />
    </clipPath>
  </defs>
  <g
     id="surface770">
    <path
       style=" stroke:none;fill-rule:nonzero;fill:rgb(18.159485%,39.289856%,70.120239%);fill-opacity:1;"
       d="M 3.269531 13.445312 C -1.289062 19.992188 -0.722656 28.507812 2.761719 35.464844 C 2.839844 35.636719 2.929688 35.796875 3.015625 35.960938 C 3.066406 36.066406 3.121094 36.171875 3.179688 36.277344 C 3.207031 36.335938 3.246094 36.398438 3.28125 36.457031 C 3.335938 36.570312 3.398438 36.671875 3.457031 36.78125 C 3.570312 36.96875 3.679688 37.164062 3.792969 37.347656 C 3.855469 37.453125 3.917969 37.558594 3.988281 37.664062 C 4.105469 37.863281 4.242188 38.0625 4.367188 38.265625 C 4.421875 38.351562 4.476562 38.433594 4.535156 38.519531 C 4.714844 38.792969 4.894531 39.0625 5.09375 39.324219 C 5.09375 39.332031 5.097656 39.339844 5.105469 39.34375 C 5.136719 39.390625 5.167969 39.433594 5.199219 39.472656 C 5.367188 39.703125 5.535156 39.925781 5.710938 40.148438 C 5.769531 40.230469 5.835938 40.3125 5.898438 40.394531 C 6.058594 40.585938 6.214844 40.78125 6.371094 40.972656 C 6.429688 41.042969 6.492188 41.117188 6.554688 41.1875 C 6.761719 41.4375 6.984375 41.6875 7.207031 41.933594 C 7.207031 41.9375 7.214844 41.945312 7.21875 41.949219 C 7.226562 41.960938 7.234375 41.96875 7.25 41.976562 C 7.464844 42.214844 7.6875 42.449219 7.910156 42.679688 C 7.980469 42.75 8.050781 42.820312 8.128906 42.894531 C 8.300781 43.066406 8.472656 43.242188 8.65625 43.414062 C 8.730469 43.484375 8.804688 43.554688 8.875 43.625 C 9.113281 43.847656 9.355469 44.070312 9.605469 44.285156 C 9.609375 44.289062 9.613281 44.292969 9.613281 44.296875 C 9.65625 44.332031 9.699219 44.367188 9.738281 44.402344 C 9.957031 44.589844 10.179688 44.777344 10.402344 44.960938 C 10.492188 45.035156 10.582031 45.105469 10.671875 45.179688 C 10.859375 45.328125 11.042969 45.46875 11.230469 45.609375 C 11.328125 45.683594 11.425781 45.757812 11.527344 45.835938 C 11.726562 45.984375 11.9375 46.132812 12.140625 46.28125 C 12.21875 46.332031 12.292969 46.386719 12.371094 46.4375 C 12.390625 46.453125 12.410156 46.46875 12.429688 46.484375 C 12.636719 46.617188 12.828125 46.75 13.03125 46.882812 C 13.121094 46.941406 13.207031 46.996094 13.292969 47.054688 C 13.605469 47.253906 13.917969 47.445312 14.230469 47.632812 C 14.320312 47.679688 14.40625 47.730469 14.492188 47.78125 C 14.726562 47.914062 14.960938 48.046875 15.199219 48.171875 C 15.328125 48.246094 15.460938 48.308594 15.59375 48.378906 C 15.753906 48.464844 15.921875 48.554688 16.09375 48.640625 C 16.136719 48.660156 16.175781 48.671875 16.214844 48.695312 C 16.285156 48.726562 16.351562 48.761719 16.417969 48.792969 C 16.679688 48.921875 16.949219 49.046875 17.226562 49.167969 C 17.277344 49.191406 17.335938 49.214844 17.390625 49.242188 C 17.699219 49.378906 18.011719 49.507812 18.328125 49.632812 C 18.402344 49.660156 18.476562 49.691406 18.554688 49.71875 C 18.84375 49.832031 19.140625 49.941406 19.433594 50.046875 C 19.472656 50.0625 19.507812 50.074219 19.542969 50.085938 C 19.871094 50.199219 20.195312 50.304688 20.53125 50.40625 C 20.605469 50.429688 20.6875 50.457031 20.769531 50.476562 C 21.109375 50.582031 21.4375 50.699219 21.78125 50.765625 C 43.816406 54.78125 50.21875 37.523438 50.21875 37.523438 C 44.839844 44.523438 35.292969 46.375 26.253906 44.316406 C 25.917969 44.242188 25.585938 44.136719 25.246094 44.035156 C 25.167969 44.011719 25.078125 43.984375 25 43.957031 C 24.671875 43.859375 24.347656 43.753906 24.03125 43.644531 C 23.984375 43.628906 23.9375 43.613281 23.890625 43.59375 C 23.605469 43.496094 23.320312 43.386719 23.039062 43.277344 C 22.960938 43.242188 22.878906 43.214844 22.796875 43.183594 C 22.484375 43.0625 22.175781 42.929688 21.871094 42.796875 C 21.804688 42.773438 21.75 42.746094 21.6875 42.71875 C 21.421875 42.597656 21.167969 42.476562 20.910156 42.355469 C 20.832031 42.320312 20.761719 42.285156 20.683594 42.246094 C 20.480469 42.148438 20.28125 42.042969 20.082031 41.9375 C 19.945312 41.867188 19.808594 41.800781 19.679688 41.730469 C 19.433594 41.597656 19.191406 41.460938 18.949219 41.328125 C 18.875 41.277344 18.792969 41.234375 18.707031 41.1875 C 18.394531 41 18.078125 40.808594 17.765625 40.609375 C 17.675781 40.554688 17.59375 40.496094 17.511719 40.441406 C 17.285156 40.296875 17.0625 40.144531 16.839844 39.996094 C 16.769531 39.945312 16.699219 39.894531 16.625 39.839844 C 16.410156 39.691406 16.203125 39.539062 15.992188 39.386719 C 15.902344 39.316406 15.808594 39.242188 15.710938 39.171875 C 15.519531 39.027344 15.328125 38.878906 15.140625 38.726562 C 15.058594 38.65625 14.972656 38.589844 14.890625 38.523438 C 14.644531 38.324219 14.410156 38.128906 14.175781 37.921875 C 14.152344 37.898438 14.121094 37.878906 14.09375 37.855469 C 13.84375 37.632812 13.59375 37.402344 13.347656 37.175781 C 13.273438 37.105469 13.210938 37.039062 13.136719 36.972656 C 12.957031 36.796875 12.777344 36.625 12.601562 36.449219 C 12.527344 36.375 12.460938 36.304688 12.390625 36.234375 C 12.164062 36.007812 11.945312 35.773438 11.726562 35.535156 C 11.71875 35.527344 11.707031 35.515625 11.695312 35.503906 C 11.46875 35.253906 11.246094 34.996094 11.027344 34.738281 C 10.964844 34.671875 10.910156 34.601562 10.851562 34.53125 C 10.691406 34.335938 10.53125 34.136719 10.367188 33.9375 C 10.3125 33.859375 10.253906 33.789062 10.195312 33.714844 C 10.003906 33.46875 9.820312 33.226562 9.636719 32.972656 C 4.621094 26.128906 2.8125 16.683594 6.824219 8.933594 "
       id="path49" />
    <path
       style=" stroke:none;fill-rule:nonzero;fill:rgb(18.159485%,39.289856%,70.120239%);fill-opacity:1;"
       d="M 17.417969 7.925781 C 14.113281 12.667969 14.296875 19.015625 16.867188 24.03125 C 17.292969 24.871094 17.777344 25.683594 18.324219 26.460938 C 18.816406 27.167969 19.359375 28.007812 20.023438 28.578125 C 20.253906 28.839844 20.503906 29.09375 20.761719 29.347656 C 20.824219 29.410156 20.886719 29.472656 20.953125 29.539062 C 21.203125 29.777344 21.453125 30.011719 21.707031 30.238281 C 21.714844 30.25 21.730469 30.257812 21.738281 30.265625 C 21.742188 30.269531 21.746094 30.273438 21.746094 30.273438 C 22.03125 30.527344 22.324219 30.765625 22.628906 31.003906 C 22.699219 31.050781 22.761719 31.109375 22.832031 31.160156 C 23.132812 31.394531 23.4375 31.617188 23.746094 31.835938 C 23.757812 31.839844 23.765625 31.847656 23.78125 31.851562 C 23.914062 31.949219 24.054688 32.039062 24.203125 32.132812 C 24.265625 32.175781 24.332031 32.222656 24.394531 32.261719 C 24.625 32.410156 24.847656 32.546875 25.078125 32.683594 C 25.113281 32.699219 25.144531 32.71875 25.179688 32.734375 C 25.375 32.851562 25.578125 32.96875 25.785156 33.074219 C 25.855469 33.117188 25.925781 33.152344 25.996094 33.191406 C 26.140625 33.261719 26.28125 33.335938 26.417969 33.40625 C 26.4375 33.417969 26.464844 33.429688 26.484375 33.4375 C 26.777344 33.582031 27.074219 33.714844 27.363281 33.847656 C 27.433594 33.875 27.492188 33.898438 27.5625 33.925781 C 27.800781 34.03125 28.042969 34.128906 28.28125 34.222656 C 28.390625 34.257812 28.492188 34.300781 28.589844 34.335938 C 28.8125 34.414062 29.035156 34.488281 29.257812 34.5625 C 29.363281 34.597656 29.460938 34.628906 29.558594 34.660156 C 29.871094 34.757812 30.1875 34.886719 30.519531 34.9375 C 47.527344 37.757812 51.460938 24.660156 51.460938 24.660156 C 47.917969 29.761719 41.0625 32.191406 33.746094 30.292969 C 33.417969 30.207031 33.097656 30.113281 32.78125 30.011719 C 32.683594 29.984375 32.59375 29.953125 32.496094 29.917969 C 32.269531 29.847656 32.039062 29.769531 31.820312 29.6875 C 31.71875 29.652344 31.613281 29.613281 31.515625 29.574219 C 31.273438 29.480469 31.027344 29.386719 30.792969 29.28125 C 30.722656 29.253906 30.65625 29.230469 30.597656 29.199219 C 30.296875 29.070312 30 28.929688 29.707031 28.789062 C 29.558594 28.710938 29.414062 28.636719 29.261719 28.558594 C 29.171875 28.515625 29.089844 28.472656 29.007812 28.429688 C 28.8125 28.328125 28.628906 28.21875 28.441406 28.109375 C 28.398438 28.085938 28.351562 28.0625 28.308594 28.035156 C 28.082031 27.898438 27.84375 27.761719 27.628906 27.617188 C 27.554688 27.574219 27.488281 27.527344 27.417969 27.480469 C 27.269531 27.386719 27.125 27.289062 26.972656 27.1875 C 26.660156 26.972656 26.359375 26.746094 26.058594 26.519531 C 25.984375 26.460938 25.917969 26.40625 25.851562 26.351562 C 22.640625 23.824219 20.101562 20.367188 18.902344 16.457031 C 17.632812 12.390625 17.914062 7.828125 20.101562 4.125 "
       id="path51" />
    <path
       style=" stroke:none;fill-rule:nonzero;fill:rgb(18.159485%,39.289856%,70.120239%);fill-opacity:1;"
       d="M 29.308594 3.804688 C 27.359375 6.664062 27.171875 10.214844 28.515625 13.367188 C 29.941406 16.71875 32.855469 19.347656 36.253906 20.59375 C 36.390625 20.648438 36.53125 20.695312 36.671875 20.742188 C 36.734375 20.761719 36.796875 20.78125 36.863281 20.800781 C 37.058594 20.863281 37.257812 20.9375 37.464844 20.976562 C 46.859375 22.789062 49.402344 16.15625 50.085938 15.179688 C 47.851562 18.394531 44.101562 19.164062 39.496094 18.046875 C 39.136719 17.960938 38.738281 17.828125 38.390625 17.703125 C 37.941406 17.542969 37.496094 17.359375 37.0625 17.15625 C 36.253906 16.761719 35.46875 16.285156 34.746094 15.738281 C 30.625 12.613281 28.074219 6.65625 30.761719 1.800781 "
       id="path53" />
    <path
       style=" stroke:none;fill-rule:nonzero;fill:rgb(18.286133%,17.745972%,17.861938%);fill-opacity:1;"
       d="M 246.996094 17.195312 L 247.363281 18.753906 C 247.46875 19.199219 247.183594 19.558594 246.730469 19.558594 "
       id="path55" />
    <path
       style=" stroke:none;fill-rule:nonzero;fill:rgb(18.286133%,17.745972%,17.861938%);fill-opacity:1;"
       d="M 217.359375 14.523438 C 217.265625 14.957031 217.152344 15.5 217.078125 15.859375 L 213.828125 31.078125 L 217.246094 15.046875 L 217.359375 14.523438 "
       id="path57" />
    <path
       style=" stroke:none;fill-rule:nonzero;fill:rgb(18.286133%,17.745972%,17.861938%);fill-opacity:1;"
       d="M 119.964844 24.707031 L 118.167969 31.066406 L 119.964844 24.707031 "
       id="path59" />
    <path
       style=" stroke:none;fill-rule:nonzero;fill:rgb(18.286133%,17.745972%,17.861938%);fill-opacity:1;"
       d="M 247.363281 18.753906 L 246.425781 14.792969 C 245.6875 11.925781 243.59375 10.570312 238.886719 10.570312 L 219.09375 10.570312 C 218.636719 10.570312 218.183594 10.777344 218.089844 11.222656 L 210.582031 46.835938 C 210.484375 47.285156 210.453125 47.605469 210.503906 47.828125 C 210.558594 48.058594 211.4375 48.015625 211.890625 48.015625 L 218.746094 48.015625 C 219.207031 48.015625 220.039062 48.050781 220.28125 47.953125 C 220.535156 47.847656 220.648438 47.167969 220.738281 46.71875 L 223.164062 34.230469 L 226.121094 20.382812 C 226.21875 19.9375 226.667969 19.574219 227.121094 19.574219 L 246.730469 19.558594 C 247.179688 19.558594 247.46875 19.199219 247.363281 18.753906 "
       id="path61" />
    <g
       clip-path="url(#clip2)"
       clip-rule="nonzero"
       id="g63">
      <path
         style=" stroke:none;fill-rule:nonzero;fill:rgb(18.286133%,17.745972%,17.861938%);fill-opacity:1;"
         d="M 275.253906 4.316406 C 274.796875 4.320312 266.558594 4.316406 266.558594 4.316406 C 266.105469 4.316406 265.519531 4.804688 265.265625 5.183594 L 250.003906 27.636719 C 249.742188 28.015625 249.445312 28 249.347656 27.554688 L 248.21875 22.636719 C 248.121094 22.1875 247.667969 21.824219 247.203125 21.824219 L 237.394531 21.824219 C 236.941406 21.824219 236.671875 22.203125 236.789062 22.644531 L 241.1875 38.058594 C 241.3125 38.5 241.324219 39.222656 241.210938 39.664062 L 239.160156 47.472656 C 239.054688 47.914062 239.332031 48.046875 239.796875 48.046875 L 249.480469 48.046875 C 249.9375 48.046875 250.40625 47.914062 250.519531 47.472656 L 252.570312 39.554688 C 252.683594 39.113281 253 38.511719 253.273438 38.144531 L 278.179688 5.109375 C 278.460938 4.746094 278.421875 4.3125 277.964844 4.3125 L 275.253906 4.316406 "
         id="path65" />
    </g>
    <path
       style=" stroke:none;fill-rule:nonzero;fill:rgb(18.286133%,17.745972%,17.861938%);fill-opacity:1;"
       d="M 173.121094 10.601562 L 164.265625 10.601562 C 163.816406 10.601562 163.351562 10.757812 163.261719 11.207031 L 160.335938 24.898438 L 157.421875 38.007812 C 157.328125 38.453125 156.878906 38.421875 156.421875 38.421875 L 150.601562 38.421875 C 144.847656 38.421875 145.511719 34.785156 146.695312 29.335938 C 146.710938 29.28125 150.386719 11.207031 150.386719 11.207031 C 150.46875 10.761719 150.167969 10.601562 149.71875 10.601562 L 141.28125 10.601562 C 140.828125 10.601562 140.375 10.761719 140.285156 11.207031 L 136.894531 29.320312 C 135.199219 39.117188 135.148438 47.734375 146.507812 48.019531 C 146.695312 48.023438 164.441406 48.019531 164.441406 48.019531 C 164.902344 48.019531 165.351562 47.867188 165.449219 47.425781 L 169.300781 29.261719 L 173.140625 11.019531 C 173.140625 11.019531 173.273438 10.601562 173.121094 10.601562 "
       id="path67" />
    <path
       style=" stroke:none;fill-rule:nonzero;fill:rgb(18.286133%,17.745972%,17.861938%);fill-opacity:1;"
       d="M 84.9375 10.570312 L 75.445312 10.570312 C 74.988281 10.570312 74.53125 10.679688 74.429688 11.125 L 72.71875 18.535156 C 72.621094 18.976562 72.910156 19.328125 73.371094 19.328125 L 82.457031 19.328125 C 82.917969 19.328125 83.371094 18.910156 83.46875 18.46875 L 85.121094 11.003906 C 85.121094 11.003906 85.25 10.570312 84.9375 10.570312 "
       id="path69" />
    <path
       style=" stroke:none;fill-rule:nonzero;fill:rgb(18.286133%,17.745972%,17.861938%);fill-opacity:1;"
       d="M 72.753906 21.824219 C 72.300781 21.824219 71.839844 22.183594 71.742188 22.632812 L 70.460938 28.285156 L 67.605469 41.339844 C 67.605469 41.339844 66.089844 48.277344 65.941406 48.710938 C 65.941406 48.710938 64.664062 53.722656 61.605469 53.523438 C 60.183594 53.429688 58.558594 53.101562 58.558594 53.101562 L 58.554688 53.101562 C 57.703125 52.84375 57.640625 53.730469 57.535156 54.175781 L 55.652344 62.308594 C 55.542969 62.753906 55.835938 63.152344 56.285156 63.160156 C 56.285156 63.160156 60.375 63.734375 63.257812 63.734375 L 63.734375 63.734375 C 70.863281 63.734375 74.628906 59.542969 77.035156 48.160156 L 79.855469 34.988281 L 82.503906 22.730469 C 82.601562 22.285156 82.332031 21.871094 81.875 21.871094 "
       id="path71" />
    <path
       style=" stroke:none;fill-rule:nonzero;fill:rgb(18.286133%,17.745972%,17.861938%);fill-opacity:1;"
       d="M 199.730469 26.183594 C 199.730469 26.679688 198.167969 26.585938 198.167969 26.585938 L 185.722656 26.492188 C 185.292969 26.492188 185.167969 25.890625 185.140625 25.460938 C 185.136719 25.445312 185.171875 24.941406 185.207031 24.820312 C 186.167969 21.480469 189.039062 19.574219 193.589844 19.574219 C 198.710938 19.574219 199.804688 22.113281 199.804688 24.929688 M 195.523438 10.515625 C 179.554688 10.515625 175.746094 20.382812 173.625 30.164062 C 171.503906 40.136719 171.683594 48.019531 188.207031 48.019531 L 188.800781 48.019531 C 195.355469 48.019531 203.320312 48.019531 203.320312 48.019531 C 203.765625 48.011719 204.214844 47.601562 204.304688 47.160156 L 205.929688 40.835938 C 206.023438 40.386719 205.71875 40.253906 205.269531 40.253906 L 190.410156 40.253906 C 185.027344 40.253906 183.101562 38.597656 183.289062 34.875 C 183.285156 34.449219 183.769531 33.371094 184.226562 33.371094 L 207.113281 33.371094 C 208.117188 33.367188 208.148438 32.777344 208.148438 32.777344 C 210.480469 22.261719 210.632812 10.515625 195.523438 10.515625 "
       id="path73" />
    <path
       style=" stroke:none;fill-rule:nonzero;fill:rgb(18.286133%,17.745972%,17.861938%);fill-opacity:1;"
       d="M 118.082031 31.066406 L 116.242188 37.355469 C 116.113281 37.796875 115.597656 38.089844 115.140625 38.089844 L 105.648438 38.089844 C 98.445312 38.089844 96.695312 32.523438 98.445312 24.214844 C 100.203125 15.722656 103.6875 10.472656 110.769531 9.9375 C 120.457031 9.210938 122.4375 16.050781 120.089844 23.910156 Z M 126.515625 37.730469 C 126.515625 37.730469 130.988281 26.867188 132.003906 20.589844 C 133.390625 12.1875 129.1875 0 112.9375 0 C 96.785156 0 89.773438 11.632812 87.089844 24.28125 C 84.417969 37.019531 87.917969 48.109375 103.980469 48.019531 L 128.503906 48.007812 C 128.953125 48.003906 129.425781 47.640625 129.539062 47.203125 L 131.609375 39.332031 C 131.71875 38.886719 131.441406 38.527344 130.980469 38.527344 L 129.007812 38.511719 L 127.03125 38.503906 C 126.644531 38.5 126.421875 38.246094 126.472656 37.914062 C 126.480469 37.851562 126.488281 37.792969 126.515625 37.730469 "
       id="path75" />
    <text
       xml:space="preserve"
       style="font-style:normal;font-weight:normal;font-size:15.99999905px;line-height:125%;font-family:sans-serif;letter-spacing:0px;word-spacing:0px;fill:#333333;fill-opacity:1;stroke:none;stroke-width:1px;stroke-linecap:butt;stroke-linejoin:miter;stroke-opacity:1;"
       x="129.42599"
       y="63.327065"
       id="text3407"
       sodipodi:linespacing="125%"><tspan
         sodipodi:role="line"
         id="tspan3409"
         x="129.42599"
         y="63.327065"
         style="font-style:italic;font-variant:normal;font-weight:bold;font-stretch:normal;font-size:15.99999905px;font-family:Klavika;-inkscape-font-specification:'Klavika Bold Italic';fill:#333333;fill-opacity:1;">operating system</tspan></text>
  </g>
</svg>
